<?xml version="1.0" encoding="UTF-8"?>
<svg xmlns="http://www.w3.org/2000/svg" viewBox="0 0 1200 630" width="1200" height="630">
  <defs>
    <linearGradient id="g80677" x1="97.55282581475768%" y1="34.54915028125262%" x2="2.447174185242325%" y2="65.45084971874738%">
      <stop offset="0%" stop-color="#D97706"/>
      <stop offset="100%" stop-color="#B45309"/>
    </linearGradient>
  </defs>
  <rect width="1200" height="630" fill="url(#g80677)"/>
  <path d="M 100 258.5428215097636 L 100 280.82497142750753 L 110 274.8396774665425 L 120 307.59497584624097 L 130 292.9040267022804 L 140 288.45636746315756 L 150 305.33831481507417 L 160 239.486800379397 L 170 308.9847205243966 L 180 313.4180257037014 L 190 245.53337158610032 L 200 223.5875632198336 L 210 312.9639161284038 L 220 310.54303416022384 L 230 311.0848459131819 L 240 211.60153984870485 L 250 213.60927098869584 L 260 224.24080262275402 L 270 212.76985759337413 L 280 204.76640040499342 L 290 209.4798681266406 L 300 211.32897421198567 L 310 259.1634459374062 L 320 254.59755767082393 L 330 213.64931883694504 L 340 205.60975050409914 L 350 205.5665741024872 L 360 225.44994044258368 L 370 212.3699059261261 L 380 206.77244650264825 L 390 212.11251304966942 L 400 224.52915110356625 L 410 261.49580275806846 L 420 261.3307655234863 L 430 215.57953978675147 L 440 207.77247611194056 L 450 258.36283573937425 L 460 251.24590183348133 L 470 266.95386260441813 L 480 308.8283689374174 L 490 305.1403441512319 L 500 212.5433835192048 L 510 234.31829396012378 L 520 252.76598773063924 L 530 232.17943288893272 L 540 230.12952212689913 L 550 241.39526468576133 L 560 257.5065988874416 L 570 260.32525809088185 L 580 303.4877989650676 L 590 310.948038355843 L 600 277.4765123120717 L 610 301.60492673135934 L 620 291.89423961205244 L 630 277.6962407731032 L 640 299.79421477333966 L 650 278.97618177717084 L 660 279.03215424501144 L 670 310.8083097760095 L 680 308.73727407545704 L 690 248.95028194243315 L 700 313.4089306194473 L 710 228.00030406051832 L 720 289.42961491134645 L 730 239.2282226699931 L 740 227.57802210881513 L 750 307.281305817178 L 760 258.42934912068023 L 770 205.73254061330866 L 780 290.88267867960303 L 790 294.25358829026726 L 800 259.2409634636214 L 810 221.15115609453005 L 820 205.6277318645798 L 830 233.9455285630392 L 840 224.54584945588078 L 850 205.71402115408753 L 860 203.75904634287295 L 870 205.58741312285989 L 880 214.90030214650557 L 890 204.98266022910593 L 900 216.80327360209537 L 910 210.84817862050232 L 920 265.34957693436485 L 930 236.05459368886787 L 940 298.39882145381927 L 950 243.49428973538292 L 960 289.65898127796817 L 970 229.27564523936175 L 980 290.02473866270424 L 990 206.6569233248777 L 1000 311.5773178777556 L 1010 264.2369603983717 L 1020 256.07631532829595 L 1030 283.29778131154313 L 1040 305.3426195532488 L 1050 302.10494278676964 L 1060 313.05549413198383 L 1070 265.37759079520265 L 1080 291.4474400836313 L 1090 287.9517829721081 L 1100 313.45929416117855" fill="none" stroke="rgba(255,255,255,0.15)" stroke-width="3"/><text x="561.5431441226974" y="268.80018262192607" font-family="serif" font-size="180" fill="rgba(255,255,255,0.08)" font-weight="bold">π</text><polygon points="386.44924494437873,64.05907734530047 345.6677352428436,134.3720251065679 427.23075464591386,134.3720251065679" fill="none" stroke="rgba(255,255,255,0.1891534655354917)" stroke-width="2"/><polygon points="1095.3823224641383,34.76054339669645 1021.4767478787805,162.1839478542097 1169.287897049496,162.1839478542097" fill="none" stroke="rgba(255,255,255,0.19490780724212525)" stroke-width="2"/><polygon points="703.0764228198677,374.5373931596987 649.5918455648236,466.75218153046444 756.5610000749118,466.75218153046444" fill="none" stroke="rgba(255,255,255,0.08983880129642785)" stroke-width="2"/><polygon points="329.6395611483604,152.8481014072895 254.37906772275454,282.6075728307478 404.9000545739662,282.6075728307478" fill="none" stroke="rgba(255,255,255,0.106349927932024)" stroke-width="2"/><polygon points="515.2373354882002,372.69917083671317 453.75105796819554,478.709994147066 576.7236130082049,478.709994147066" fill="none" stroke="rgba(255,255,255,0.0851559236086905)" stroke-width="2"/><line x1="913.343464564532" y1="185.56863518897444" x2="1073.343464564532" y2="185.56863518897444" stroke="rgba(255,255,255,0.12)" stroke-width="2"/><line x1="993.343464564532" y1="105.56863518897444" x2="993.343464564532" y2="265.56863518897444" stroke="rgba(255,255,255,0.12)" stroke-width="2"/><text x="191.46375820040703" y="408.71343575417995" font-family="serif" font-size="140" fill="rgba(255,255,255,0.07)">∫</text><circle cx="319.76506784558296" cy="304.7862903820351" r="37.74386699311435" fill="none" stroke="rgba(255,255,255,0.12184149528853595)" stroke-width="1.5"/><circle cx="761.494411714375" cy="225.8964351983741" r="41.37674821540713" fill="none" stroke="rgba(255,255,255,0.10681713476311416)" stroke-width="1.5"/><circle cx="336.8018036708236" cy="453.32376858685166" r="43.15729026682675" fill="none" stroke="rgba(255,255,255,0.13731321284081788)" stroke-width="1.5"/><circle cx="325.1530662178993" cy="334.0052842791192" r="49.5938490703702" fill="none" stroke="rgba(255,255,255,0.0933664513193071)" stroke-width="1.5"/>
  <circle cx="1136.1317798495293" cy="426.7533919913694" r="2.0439736754633486" fill="rgba(255,255,255,0.07484752474818379)"/><circle cx="502.9087174683809" cy="606.2686998699792" r="1.5434098816476762" fill="rgba(255,255,255,0.05696835255483165)"/><circle cx="509.7869608551264" cy="275.45489254407585" r="1.5786577006801963" fill="rgba(255,255,255,0.03782209753524512)"/><circle cx="628.6862600594759" cy="460.7180203660391" r="2.130147334188223" fill="rgba(255,255,255,0.04515023483661935)"/><circle cx="596.1166416294873" cy="372.4294928018935" r="2.0835721027106047" fill="rgba(255,255,255,0.0523220435786061)"/><circle cx="143.25335444882512" cy="355.00164369586855" r="2.1351295048370957" fill="rgba(255,255,255,0.07170421260641888)"/><circle cx="1122.5281365215778" cy="294.1945564141497" r="2.2710015242919326" fill="rgba(255,255,255,0.0349376311362721)"/><circle cx="527.154849562794" cy="177.207745523192" r="2.9969784901477396" fill="rgba(255,255,255,0.06232373297214508)"/><circle cx="153.06072374805808" cy="472.4486982473172" r="2.2048585736192763" fill="rgba(255,255,255,0.06004937734222039)"/><circle cx="307.4851314537227" cy="304.7990529751405" r="1.846724784001708" fill="rgba(255,255,255,0.07394193262560293)"/><circle cx="72.00787011533976" cy="114.39761321526021" r="1.960600952617824" fill="rgba(255,255,255,0.047743196431547404)"/><circle cx="610.4323768056929" cy="490.4361667530611" r="1.4672003146260977" fill="rgba(255,255,255,0.05099362119333818)"/><circle cx="129.42909831181169" cy="618.3929783455096" r="1.10827421490103" fill="rgba(255,255,255,0.03550262337783351)"/><circle cx="273.6242967657745" cy="613.7197600048967" r="2.4827228719368577" fill="rgba(255,255,255,0.06571094385115431)"/><circle cx="34.04313465580344" cy="467.6397107192315" r="2.1482284711673856" fill="rgba(255,255,255,0.07863459551706911)"/><circle cx="529.4105887413025" cy="0.46808417653664947" r="2.2076939549297094" fill="rgba(255,255,255,0.07666702882386744)"/><circle cx="136.2894038669765" cy="448.5905968537554" r="1.435670436359942" fill="rgba(255,255,255,0.04389695885591209)"/><circle cx="419.6736772544682" cy="486.58642570255324" r="2.019489275291562" fill="rgba(255,255,255,0.06052722468273714)"/><circle cx="866.6859777644277" cy="624.7015027049929" r="1.592979418579489" fill="rgba(255,255,255,0.03023455519694835)"/><circle cx="1151.6938098706305" cy="227.82977084862068" r="2.645094046369195" fill="rgba(255,255,255,0.05914841303136199)"/>
  <text x="600" y="335" font-family="system-ui, -apple-system, 'Segoe UI', sans-serif" font-size="58" font-weight="700" fill="rgba(0,0,0,0.15)" text-anchor="middle" letter-spacing="1">CBSE Class 12 Mathematics</text>
  <text x="600" y="332" font-family="system-ui, -apple-system, 'Segoe UI', sans-serif" font-size="58" font-weight="700" fill="white" text-anchor="middle" letter-spacing="1">CBSE Class 12 Mathematics</text>
  <g transform="translate(1140, 575)">
    <rect x="0" y="0" width="40" height="40" rx="8" fill="rgba(255,255,255,0.15)"/>
    <text x="20" y="29" font-family="sans-serif" font-weight="bold" font-size="24" fill="rgba(255,255,255,0.6)" text-anchor="middle">K</text>
  </g>
</svg>